<?xml version="1.0" standalone="no"?>
<!DOCTYPE svg PUBLIC "-//W3C//DTD SVG 20010904//EN"
 "http://www.w3.org/TR/2001/REC-SVG-20010904/DTD/svg10.dtd">
<svg version="1.0" xmlns="http://www.w3.org/2000/svg"
 width="1049.000000pt" height="707.000000pt" viewBox="0 0 1049.000000 707.000000"
 preserveAspectRatio="xMidYMid meet">

<g transform="translate(0.000000,707.000000) scale(0.100000,-0.100000)"
fill="#000000" stroke="none">
<path d="M6115 7044 c-598 -35 -1126 -235 -1585 -600 -190 -151 -421 -406
-555 -610 -32 -49 -62 -93 -65 -97 -4 -5 -39 7 -77 26 -95 48 -254 103 -377
129 -139 30 -433 32 -581 4 -708 -132 -1237 -713 -1300 -1426 l-6 -75 -92 -34
c-299 -109 -596 -306 -832 -552 -725 -755 -826 -1918 -244 -2789 369 -551 945
-908 1599 -990 58 -7 1070 -10 3238 -10 3406 0 3233 -2 3481 51 299 65 647
230 891 423 548 433 861 1070 862 1756 1 276 -33 488 -117 736 -135 400 -373
741 -712 1023 -154 129 -410 277 -605 351 l-85 32 -7 112 c-27 458 -183 922
-440 1316 -145 221 -387 485 -586 639 -414 322 -889 516 -1390 570 -111 12
-329 20 -415 15z m396 -770 c372 -51 737 -220 1026 -473 293 -257 517 -627
609 -1006 44 -183 55 -301 53 -545 -2 -213 -1 -228 20 -282 27 -70 101 -154
168 -190 26 -15 104 -40 173 -56 294 -71 512 -193 726 -406 135 -135 226 -263
298 -417 313 -671 88 -1472 -529 -1881 -219 -145 -444 -224 -710 -248 -132
-12 -6058 -12 -6190 0 -690 62 -1242 567 -1360 1245 -24 134 -24 366 0 500 49
284 182 551 375 758 224 239 474 381 795 452 66 14 143 37 171 50 66 32 138
105 172 175 23 48 26 67 26 150 0 52 -4 142 -8 200 -7 88 -5 120 12 201 53
257 223 474 457 585 129 62 204 78 360 78 149 0 238 -19 358 -80 95 -48 138
-78 241 -174 48 -45 108 -91 132 -101 195 -87 416 0 500 197 53 124 131 280
184 365 213 344 548 626 925 779 163 66 280 96 525 133 72 11 389 6 491 -9z"/>
</g>
</svg>
