<?xml version="1.0" standalone="no"?>
<!DOCTYPE svg PUBLIC "-//W3C//DTD SVG 20010904//EN"
 "http://www.w3.org/TR/2001/REC-SVG-20010904/DTD/svg10.dtd">
<svg version="1.0" xmlns="http://www.w3.org/2000/svg"
 width="1200.000000pt" height="630.000000pt" viewBox="0 0 1200.000000 630.000000"
 preserveAspectRatio="xMidYMid meet">

<g transform="translate(0.000000,630.000000) scale(0.100000,-0.100000)"
fill="#000000" stroke="none">
<path d="M5820 6274 c-102 -44 -134 -97 -191 -304 -67 -249 -78 -302 -78 -360
-1 -181 206 -304 375 -224 81 38 115 89 154 231 17 65 45 165 61 223 57 200
49 287 -34 368 -75 74 -202 103 -287 66z"/>
<path d="M4077 6016 c-62 -23 -119 -73 -150 -131 -29 -55 -29 -173 -1 -230 41
-82 227 -387 256 -421 104 -118 292 -115 387 7 47 58 65 119 59 201 -3 59 -12
78 -120 273 -64 116 -130 222 -145 237 -72 67 -199 96 -286 64z"/>
<path d="M7239 5171 c-14 -5 -68 -34 -120 -66 -51 -32 -136 -83 -187 -114
-126 -75 -166 -112 -196 -176 -83 -174 43 -367 239 -367 70 0 105 15 272 120
59 37 130 80 157 96 115 67 176 156 176 259 0 137 -122 258 -260 256 -30 0
-66 -4 -81 -8z"/>
<path d="M5165 5164 c-207 -31 -418 -109 -580 -214 -330 -216 -540 -522 -636
-930 -20 -83 -23 -123 -23 -310 0 -199 2 -223 26 -325 96 -401 309 -713 630
-924 l87 -57 -46 -74 c-327 -540 -307 -1260 50 -1778 64 -94 220 -253 307
-314 196 -138 370 -202 600 -218 165 -12 2165 -12 2345 0 192 12 322 46 470
122 258 133 466 355 598 638 183 392 206 829 65 1243 -32 95 -106 252 -155
329 -205 320 -527 542 -857 590 -80 11 -89 15 -99 38 -37 90 -105 226 -144
290 -164 264 -409 463 -683 553 -91 30 -242 57 -322 57 -38 0 -60 4 -62 13 -2
6 -11 53 -20 102 -83 435 -361 811 -756 1024 -187 100 -357 142 -595 146 -93
2 -183 1 -200 -1z m284 -514 c287 -36 550 -240 683 -529 46 -100 78 -217 85
-308 l6 -82 -48 -28 c-140 -83 -321 -259 -422 -412 -34 -51 -87 -148 -118
-215 l-57 -123 -83 -11 c-103 -13 -215 -51 -320 -106 l-80 -42 -80 31 c-162
64 -281 156 -385 295 -348 471 -193 1186 315 1442 161 82 325 110 504 88z
m1411 -1331 c122 -19 294 -117 388 -221 104 -113 172 -241 221 -413 36 -124
43 -139 89 -188 53 -55 121 -77 240 -77 223 -1 374 -58 517 -196 125 -120 215
-286 266 -484 21 -83 24 -117 24 -275 -1 -163 -3 -190 -27 -281 -73 -275 -232
-488 -440 -588 -51 -24 -120 -50 -153 -56 -43 -8 -410 -10 -1265 -8 l-1205 3
-73 32 c-178 79 -317 215 -411 403 -82 162 -114 303 -114 500 0 153 11 225 55
360 63 196 166 346 311 456 124 93 221 124 411 130 127 4 142 6 189 31 72 39
101 86 147 241 60 200 128 319 249 440 158 158 364 226 581 191z"/>
<path d="M3050 4551 c-69 -21 -140 -82 -176 -151 -27 -53 -25 -153 4 -210 50
-95 106 -133 252 -168 361 -89 393 -94 461 -70 74 25 145 105 169 190 14 45
-3 130 -36 182 -59 92 -101 110 -539 225 -45 12 -98 13 -135 2z"/>
<path d="M3640 2945 c-37 -8 -92 -34 -165 -80 -60 -37 -146 -90 -190 -117
-151 -92 -201 -167 -193 -288 6 -74 21 -110 72 -161 57 -58 98 -74 196 -74
l85 0 95 61 c52 34 138 87 190 120 137 84 166 110 200 177 38 76 40 141 6 212
-56 121 -169 178 -296 150z"/>
</g>
</svg>
