<?xml version="1.0" standalone="no"?>
<!DOCTYPE svg PUBLIC "-//W3C//DTD SVG 20010904//EN"
 "http://www.w3.org/TR/2001/REC-SVG-20010904/DTD/svg10.dtd">
<svg version="1.0" xmlns="http://www.w3.org/2000/svg"
 width="512.000000pt" height="512.000000pt" viewBox="0 0 512.000000 512.000000"
 preserveAspectRatio="xMidYMid meet">

<g transform="translate(0.000000,512.000000) scale(0.100000,-0.100000)"
fill="#000000" stroke="none">
<path d="M1810 4995 c-307 -45 -578 -188 -797 -419 -181 -190 -306 -443 -345
-694 l-12 -74 -60 -41 c-239 -160 -403 -401 -461 -677 -132 -625 312 -1225
954 -1290 136 -13 2809 -14 2939 0 449 47 814 349 936 771 54 190 56 405 5
589 -50 180 -172 379 -306 499 -70 62 -71 64 -93 149 -47 184 -152 362 -293
499 -129 125 -261 205 -424 257 -226 71 -486 64 -704 -18 l-87 -32 -104 100
c-208 202 -436 320 -713 372 -117 21 -322 26 -435 9z m290 -405 c286 -33 531
-180 689 -414 58 -84 84 -110 133 -131 77 -31 102 -25 288 78 177 97 405 106
589 22 207 -95 343 -278 385 -518 22 -127 28 -135 170 -247 151 -117 236 -302
236 -509 -1 -111 -10 -161 -47 -251 -59 -144 -175 -270 -312 -338 -154 -77
-48 -73 -1706 -70 l-1480 3 -58 22 c-118 45 -181 86 -267 173 -134 134 -192
273 -192 461 1 255 128 464 362 591 139 76 157 103 176 271 17 147 41 229 99
344 135 269 398 462 695 508 107 17 135 17 240 5z"/>
<path d="M1108 1490 c-20 -11 -48 -35 -62 -52 -43 -57 -214 -389 -221 -428 -8
-47 10 -116 41 -156 48 -65 167 -94 247 -60 51 21 88 71 193 267 93 173 98
187 99 244 0 76 -26 129 -84 170 -55 39 -156 46 -213 15z"/>
<path d="M2478 1490 c-20 -11 -48 -35 -62 -52 -43 -57 -214 -389 -221 -428 -8
-47 10 -116 41 -156 48 -65 167 -94 247 -60 51 21 88 71 193 267 93 173 98
187 99 244 0 76 -26 129 -84 170 -55 39 -156 46 -213 15z"/>
<path d="M3848 1490 c-20 -11 -48 -35 -62 -52 -43 -57 -214 -389 -221 -428 -8
-47 10 -116 41 -156 48 -65 167 -94 247 -60 51 21 88 71 193 267 93 173 98
187 99 244 0 76 -26 129 -84 170 -55 39 -156 46 -213 15z"/>
<path d="M1637 838 c-65 -18 -106 -70 -212 -268 -88 -165 -99 -192 -103 -246
-3 -47 0 -70 17 -102 63 -124 237 -148 333 -46 14 16 72 115 127 219 90 170
101 195 101 242 0 28 -5 64 -11 80 -12 33 -64 89 -99 108 -37 19 -109 25 -153
13z"/>
<path d="M3166 838 c-66 -18 -112 -77 -217 -278 -53 -102 -99 -200 -103 -218
-20 -113 85 -232 204 -232 45 0 100 21 134 50 20 18 72 102 136 222 90 166
105 200 108 248 7 94 -52 178 -142 205 -56 17 -65 17 -120 3z"/>
</g>
</svg>
