<?xml version="1.0" standalone="no"?>
<!DOCTYPE svg PUBLIC "-//W3C//DTD SVG 20010904//EN"
 "http://www.w3.org/TR/2001/REC-SVG-20010904/DTD/svg10.dtd">
<svg version="1.0" xmlns="http://www.w3.org/2000/svg"
 width="162.000000pt" height="162.000000pt" viewBox="0 0 162.000000 162.000000"
 preserveAspectRatio="xMidYMid meet">

<g transform="translate(0.000000,162.000000) scale(0.100000,-0.100000)"
fill="#000000" stroke="none">
<path d="M746 1483 c-3 -3 -6 -51 -6 -105 l0 -98 70 0 71 0 -3 103 -3 102 -61
2 c-34 1 -64 -1 -68 -4z"/>
<path d="M330 1285 l-44 -45 72 -73 72 -72 47 48 48 47 -70 70 c-38 38 -72 70
-75 70 -3 0 -26 -20 -50 -45z"/>
<path d="M1165 1260 l-70 -70 48 -47 47 -48 72 72 72 73 -44 45 c-24 25 -47
45 -50 45 -3 0 -37 -32 -75 -70z"/>
<path d="M680 1194 c-104 -38 -182 -108 -237 -215 -26 -50 -28 -63 -28 -169 0
-108 2 -119 30 -175 38 -76 114 -152 190 -190 56 -28 67 -30 175 -30 108 0
119 2 175 30 76 38 152 114 190 190 28 56 30 67 30 175 0 108 -2 119 -30 175
-39 76 -117 155 -192 191 -49 24 -73 28 -158 31 -74 2 -112 -1 -145 -13z m262
-151 c92 -51 146 -155 135 -261 -15 -145 -149 -254 -295 -239 -145 15 -254
149 -239 295 11 102 92 201 191 232 57 17 150 5 208 -27z"/>
<path d="M135 868 c-2 -7 -3 -38 -2 -68 l2 -55 103 -3 102 -3 0 71 0 70 -100
0 c-72 0 -102 -4 -105 -12z"/>
<path d="M1280 810 l0 -70 100 0 c113 0 115 1 108 91 l-3 44 -102 3 -103 3 0
-71z"/>
<path d="M355 450 l-70 -70 48 -47 47 -48 72 72 72 73 -44 45 c-24 25 -47 45
-50 45 -3 0 -37 -32 -75 -70z"/>
<path d="M1140 475 l-44 -45 72 -73 72 -72 47 48 48 47 -70 70 c-38 38 -72 70
-75 70 -3 0 -26 -20 -50 -45z"/>
<path d="M742 238 l3 -103 44 -3 c90 -7 91 -5 91 108 l0 100 -70 0 -71 0 3
-102z"/>
</g>
</svg>
